<svg width="31" height="35" viewBox="0 0 31 35" fill="none" xmlns="http://www.w3.org/2000/svg">
<path d="M0.583333 35H8.75C9.07214 35 9.33333 34.7388 9.33333 34.4167V33.8333H25.0833C25.238 33.8333 25.3864 33.7718 25.4958 33.6624L29.6799 29.4783C30.1055 29.0516 30.341 28.4714 30.3333 27.8687C30.3208 26.9715 29.7725 26.1688 28.9411 25.831C28.1097 25.4929 27.1569 25.6855 26.5217 26.3195L24.5 28.3418V3.5H25.0833C25.4055 3.5 25.6667 3.23881 25.6667 2.91667V0.583333C25.6667 0.26119 25.4055 0 25.0833 0H9.91667C9.59452 0 9.33333 0.26119 9.33333 0.583333V2.91667C9.33333 3.23881 9.59452 3.5 9.91667 3.5H10.5V27.4167H9.33333V26.25C9.33333 25.9279 9.07214 25.6667 8.75 25.6667H0.583333C0.26119 25.6667 0 25.9279 0 26.25V34.4167C0 34.7388 0.26119 35 0.583333 35ZM10.5 1.16667H24.5V2.33333H10.5V1.16667ZM22.1667 22.75C22.1655 22.6799 22.1516 22.6104 22.1254 22.5452C22.1163 22.5253 22.106 22.5056 22.0943 22.4868C22.0738 22.4449 22.0482 22.4056 22.018 22.3703C22.0009 22.351 21.9824 22.333 21.963 22.3159C21.9505 22.302 21.9371 22.2889 21.9229 22.2763L17.8395 19.3597C17.6367 19.215 17.3644 19.215 17.1616 19.3597L13.0783 22.2763C13.0643 22.2889 13.0507 22.302 13.0381 22.3159C13.0188 22.333 13.0002 22.351 12.9832 22.3703C12.953 22.4056 12.9273 22.4449 12.9068 22.4868C12.8951 22.5056 12.8849 22.5253 12.8761 22.5452C12.8493 22.6104 12.8348 22.6796 12.8333 22.75V27.4167H11.6667V3.5H23.3333V29.1667H22.1667V22.75ZM17.6008 24.5C17.0081 24.4983 16.4396 24.7341 16.0217 25.1545L14 27.1751V23.3333H21V29.1667H18.3249L19.1794 28.3122C19.8182 27.6736 20.0094 26.7128 19.6636 25.8783C19.3178 25.044 18.5035 24.5 17.6003 24.5H17.6008ZM15.2367 22.1667L17.5 20.5503L19.7633 22.1667H15.2367ZM9.33333 28.5833H14C14.1547 28.5833 14.3031 28.5218 14.4124 28.4124L16.846 25.9788C17.1514 25.6741 17.6099 25.5832 18.0084 25.7484C18.4069 25.9136 18.6667 26.3024 18.6667 26.7336C18.6672 27.0165 18.555 27.2882 18.3545 27.4879L16.5042 29.3376C16.3376 29.5045 16.2875 29.7554 16.3778 29.9733C16.4681 30.1912 16.6808 30.3333 16.9167 30.3333H23.9167C24.0713 30.3333 24.2197 30.2718 24.3291 30.1624L27.3472 27.1438C27.5559 26.9384 27.8388 26.8265 28.1313 26.8333C28.4107 26.8353 28.6779 26.9495 28.8724 27.1503C29.067 27.3509 29.1732 27.6215 29.1667 27.9009C29.1675 28.1831 29.0553 28.4543 28.8551 28.6534L24.8418 32.6667H9.33333V28.5833ZM1.16667 26.8333H8.16667V33.8333H1.16667V26.8333Z" fill="white"/>
<path d="M12.8331 11.6667H15.1664V12.8333H12.8331V11.6667Z" fill="white"/>
<path d="M16.3333 11.6667H18.6666V12.8333H16.3333V11.6667Z" fill="white"/>
<path d="M19.8331 11.6667H22.1665V12.8333H19.8331V11.6667Z" fill="white"/>
<path d="M12.8331 14.0001H15.1664V15.1668H12.8331V14.0001Z" fill="white"/>
<path d="M16.3333 14.0001H18.6666V15.1668H16.3333V14.0001Z" fill="white"/>
<path d="M19.8331 14.0001H22.1665V15.1668H19.8331V14.0001Z" fill="white"/>
<path d="M12.8331 16.3333H15.1664V17.4999H12.8331V16.3333Z" fill="white"/>
<path d="M16.3333 16.3333H18.6666V17.4999H16.3333V16.3333Z" fill="white"/>
<path d="M19.8331 16.3333H22.1665V17.4999H19.8331V16.3333Z" fill="white"/>
<path d="M12.8331 4.6666H15.1664V5.83326H12.8331V4.6666Z" fill="white"/>
<path d="M16.3333 4.6666H18.6666V5.83326H16.3333V4.6666Z" fill="white"/>
<path d="M19.8331 4.6666H22.1665V5.83326H19.8331V4.6666Z" fill="white"/>
<path d="M12.8331 7.00006H15.1664V8.16673H12.8331V7.00006Z" fill="white"/>
<path d="M16.3333 7.00006H18.6666V8.16673H16.3333V7.00006Z" fill="white"/>
<path d="M19.8331 7.00006H22.1665V8.16673H19.8331V7.00006Z" fill="white"/>
<path d="M12.8331 9.33319H15.1664V10.4999H12.8331V9.33319Z" fill="white"/>
<path d="M16.3333 9.33319H18.6666V10.4999H16.3333V9.33319Z" fill="white"/>
<path d="M19.8331 9.33319H22.1665V10.4999H19.8331V9.33319Z" fill="white"/>
<path d="M6.00254 31.6691C5.89488 31.7802 5.83421 31.9286 5.83335 32.0832C5.83193 32.3202 5.97406 32.5344 6.1931 32.6252C6.41184 32.7161 6.66392 32.6657 6.83083 32.4973C6.85419 32.4683 6.87754 32.439 6.9009 32.4039C6.92369 32.374 6.94163 32.3407 6.95331 32.3048C6.9704 32.2721 6.98179 32.2364 6.98777 32.2C6.99489 32.1613 6.99917 32.1222 7.00002 32.0832C7.00144 31.8463 6.85931 31.6321 6.64028 31.5412C6.42153 31.4504 6.16945 31.5008 6.00254 31.6691Z" fill="white"/>
<path d="M12.8331 18.6667H15.1664V19.8334H12.8331V18.6667Z" fill="white"/>
<path d="M19.8331 18.6667H22.1665V19.8334H19.8331V18.6667Z" fill="white"/>
</svg>
