<svg width="35" height="35" viewBox="0 0 35 35" fill="none" xmlns="http://www.w3.org/2000/svg">
<path d="M31.5215 28.257L31.7303 27.0032C32.9773 26.6989 33.871 25.5942 33.871 24.2744C33.871 22.8947 32.8757 21.7431 31.5655 21.4992C31.3217 20.1889 30.17 19.1937 28.7903 19.1937C27.4106 19.1937 26.259 20.1889 26.0151 21.4992C24.7049 21.743 23.7096 22.8947 23.7096 24.2744C23.7096 25.5942 24.6033 26.6989 25.8503 27.0032L26.0541 28.2259H23.7096V27.0969H21.4516C20.5833 27.0969 19.7936 27.4277 19.1935 27.9662V21.4517H19.758C21.9371 21.4517 23.7096 19.6792 23.7096 17.5001V16.9356H22.9961C23.4443 16.2949 23.7096 15.517 23.7096 14.6776V14.1131H22.9961C23.4443 13.4723 23.7096 12.6944 23.7096 11.855V11.2905H22.0161C21.8298 11.2905 21.6474 11.308 21.4679 11.3328L23.1163 6.38826L22.0454 6.03094L20.7781 9.83241C20.5579 8.93765 20.0126 8.14674 19.2268 7.6229L18.629 7.22491L18.0312 7.62344C17.2454 8.14728 16.7001 8.9382 16.4799 9.83296L15.2126 6.03149L14.1417 6.38881L15.7901 11.3334C15.6106 11.3079 15.4283 11.2904 15.242 11.2904H13.5484V11.855C13.5484 12.6944 13.8137 13.4723 14.262 14.113H13.5484V14.6775C13.5484 15.517 13.8137 16.2948 14.262 16.9356H13.5484V17.5001C13.5484 19.6792 15.321 21.4517 17.5 21.4517H18.0645V27.9662C17.4645 27.4277 16.6747 27.0969 15.8065 27.0969H13.5484V28.2259H12.0135L12.2845 27.1409C12.3737 26.783 12.4194 26.4144 12.4194 26.0458V25.9678C12.4194 24.5893 11.7967 23.3546 10.8201 22.526L12.3601 19.4465C12.4476 19.2715 12.4381 19.0638 12.3353 18.8973C12.232 18.7308 12.0508 18.6291 11.8549 18.6291C11.029 18.6291 10.2483 18.8865 9.59684 19.3348V18.6291C9.59684 17.6954 8.83702 16.9356 7.9033 16.9356C6.96958 16.9356 6.20977 17.6954 6.20977 18.6291V19.3348C5.5583 18.8865 4.77757 18.6291 3.95172 18.6291C3.7558 18.6291 3.57465 18.7307 3.47129 18.8967C3.36854 19.0632 3.35897 19.2709 3.44647 19.4459L4.98647 22.5254C4.00989 23.3546 3.38721 24.5892 3.38721 25.9678V26.0458C3.38721 26.4144 3.43294 26.783 3.52215 27.1409L3.79538 28.2333C1.68902 28.3169 0 30.0516 0 32.1776V33.3066C0 34.2403 0.759814 35.0001 1.69354 35.0001H33.3065C34.2402 35.0001 35 34.2403 35 33.3066V32.1776C35 30.1589 33.4775 28.4919 31.5215 28.257V28.257ZM14.7345 15.2421H15.242C15.33 15.2421 15.4158 15.2506 15.5017 15.2584C15.9092 15.4989 16.3626 15.6672 16.8457 15.7479C17.4503 16.1673 17.8642 16.7939 18.0075 17.5001H17.5C16.1367 17.5001 14.9963 16.5286 14.7345 15.2421ZM21.7565 15.2584C21.8423 15.2505 21.928 15.2421 22.0162 15.2421H22.5237C22.2617 16.5286 21.1208 17.5001 19.758 17.5001H19.25C19.3934 16.7911 19.8105 16.1667 20.418 15.7467C20.8995 15.6654 21.3505 15.4972 21.7565 15.2584V15.2584ZM19.758 20.3227H19.25C19.3934 19.6137 19.8105 18.9893 20.418 18.5693C20.8995 18.488 21.3505 18.3198 21.7565 18.0804C21.8423 18.0731 21.928 18.0647 22.0162 18.0647H22.5237C22.2617 19.3512 21.1213 20.3227 19.758 20.3227V20.3227ZM22.5236 12.4195C22.2616 13.706 21.1208 14.6775 19.758 14.6775H19.2505C19.5125 13.391 20.6533 12.4195 22.0161 12.4195H22.5236ZM18.629 8.58191C19.3363 9.0674 19.758 9.86618 19.758 10.7259C19.758 11.5857 19.3363 12.3845 18.629 12.87C17.9217 12.3845 17.5 11.5857 17.5 10.7259C17.5 9.86618 17.9217 9.0674 18.629 8.58191ZM15.242 12.4195C16.6052 12.4195 17.7456 13.391 18.0075 14.6775H17.5C16.1367 14.6775 14.9963 13.706 14.7345 12.4195H15.242ZM17.5 20.3227C16.1367 20.3227 14.9963 19.3512 14.7345 18.0647H15.242C15.33 18.0647 15.4158 18.0731 15.5017 18.081C15.9092 18.3215 16.3626 18.4897 16.8457 18.5704C17.4503 18.9899 17.8642 19.6165 18.0075 20.3227H17.5ZM24.8387 24.2744C24.8387 23.3406 25.5985 22.5808 26.5323 22.5808C27.3057 22.5808 27.9797 23.103 28.1727 23.851L29.2662 23.5693C29.0003 22.5368 28.1801 21.7708 27.1752 21.5353C27.3841 20.8365 28.0248 20.3228 28.7903 20.3228C29.724 20.3228 30.4838 21.0826 30.4838 22.0163V22.5808H31.0483C31.9821 22.5808 32.7419 23.3406 32.7419 24.2744C32.7419 25.1544 32.0752 25.8753 31.1917 25.9504L30.7547 25.9876L30.0057 30.484H29.3547V25.9678H28.2257V30.484H27.5748L26.8257 25.9882L26.3888 25.9509C25.5054 25.8753 24.8387 25.1544 24.8387 24.2744V24.2744ZM21.4516 28.2259H22.5806C22.5806 29.4712 21.5679 30.484 20.3226 30.484H19.1935C19.1935 29.2387 20.2063 28.2259 21.4516 28.2259ZM15.8065 28.2259C17.0518 28.2259 18.0645 29.2387 18.0645 30.484H16.9355C15.6902 30.484 14.6774 29.4712 14.6774 28.2259H15.8065ZM10.8505 19.94L9.86658 21.9073C9.64188 21.7983 9.40816 21.7058 9.16487 21.6346L9.22585 21.4918C9.53976 20.7602 10.1337 20.2087 10.8505 19.94ZM7.90323 18.0647C8.21427 18.0647 8.46774 18.3181 8.46774 18.6292V20.5124C8.36274 20.6817 8.26848 20.8596 8.18829 21.047L8.01213 21.4574C7.97597 21.4562 7.93987 21.4517 7.90316 21.4517C7.86646 21.4517 7.83036 21.4562 7.79365 21.4574L7.61749 21.047C7.5373 20.8601 7.44365 20.6817 7.33804 20.5124V18.6292C7.33872 18.3181 7.5922 18.0647 7.90323 18.0647V18.0647ZM4.95592 19.94C5.67342 20.2087 6.26671 20.7602 6.58062 21.4918L6.64159 21.6346C6.3983 21.7058 6.16458 21.7983 5.93988 21.9073L4.95592 19.94ZM4.51616 25.9679C4.51616 24.0999 6.03524 22.5808 7.90323 22.5808C9.77122 22.5808 11.2903 24.0999 11.2903 25.9679V26.0458C11.2903 26.3224 11.2565 26.5985 11.1893 26.8672L10.2849 30.4841H5.52152L4.6172 26.8678C4.55 26.5991 4.51616 26.3225 4.51616 26.0458V25.9679ZM33.871 33.3066C33.871 33.6176 33.6175 33.8711 33.3065 33.8711H1.69354C1.3825 33.8711 1.12902 33.6176 1.12902 33.3066V32.1776C1.12902 30.6212 2.39524 29.355 3.95158 29.355H4.07524L4.3575 30.4841H3.38707V31.6131H12.4193V30.4841H11.4489L11.7312 29.355H13.7459C14.2122 30.6687 15.4637 31.6131 16.9354 31.6131H18.0644H19.1935H20.3225C21.7942 31.6131 23.0457 30.6686 23.512 29.355H26.242L26.43 30.4841H25.4032V31.6131H32.1774V30.4841H31.1499L31.3334 29.3838C32.7543 29.5295 33.8709 30.7189 33.8709 32.1776V33.3066H33.871Z" fill="white"/>
<path d="M5.64517 24.8387H10.1613V25.9677H5.64517V24.8387Z" fill="white"/>
<path d="M5.64517 27.0966H10.1613V28.2257H5.64517V27.0966Z" fill="white"/>
<path d="M17.5 1.12902C22.3079 1.12902 26.7501 3.17427 29.864 6.77421H27.6612V7.90323H31.6128V3.95158H30.4838V5.77439C27.1684 2.08981 22.5219 0 17.5 0C15.2848 0 13.1255 0.408721 11.0831 1.21427L11.4969 2.26427C13.4072 1.51122 15.427 1.12902 17.5 1.12902V1.12902Z" fill="white"/>
<path d="M0 17.4999C0 19.7151 0.408721 21.8744 1.21427 23.9167L2.26427 23.503C1.51122 21.5927 1.12902 19.5729 1.12902 17.4999C1.12902 12.6919 3.17427 8.24974 6.77421 5.1359V7.33864H7.90323V3.38699H3.95158V4.51602H5.77439C2.08981 7.83145 0 12.478 0 17.4999Z" fill="white"/>
<path d="M33.4228 21.3206L34.5208 21.5831C34.8386 20.2537 35 18.8802 35 17.5C35 15.2848 34.5913 13.1255 33.7858 11.0831L32.7358 11.4969C33.4888 13.4072 33.871 15.4271 33.871 17.5C33.871 18.7915 33.7203 20.077 33.4228 21.3206Z" fill="white"/>
</svg>
